<svg viewBox="0 0 200 200" width="100%" height="100%" xmlns="http://www.w3.org/2000/svg" class="ac27-icon" role="img"><path d="M84.35 40.9h-11.9V25.1a15.83 15.83 0 0115.8-15.8H112a15.83 15.83 0 0115.8 15.8v15.8H116V25.1a3.9 3.9 0 00-3.9-3.9H108v3.9H92.05v-3.9h-3.8a3.9 3.9 0 00-3.9 3.9zm55 7.9h-55.2v17.7L96 78.3v34H68.35v-34l11.8-11.8V48.8h-19.6a15.83 15.83 0 00-15.8 15.8V167a15.83 15.83 0 0015.8 15.8v7.9h15.8v-7.9h47.3v7.3h15.8v-7.3a15.83 15.83 0 0015.8-15.8V64.5a15.9 15.9 0 00-15.9-15.7zm-61.1 27.6a3.9 3.9 0 003.9 3.9a4 4 0 003.9-3.9a3.9 3.9 0 10-7.8 0z"></path></svg>