<svg aria-hidden="true" viewBox="0 0 40 40" xmlns="http://www.w3.org/2000/svg" fill="none" fill-rule="evenodd"><g fill="#E5EBF0"><path d="M4 33h32v3H4z"></path><path d="M4 4h3v32H4z"></path></g><path class="arrow-buy" fill="#15844B" d="M30.848 15.03l-11.88 12.33-6.917-7.182-9.516 9.882L0 27.432l12.003-12.46 6.92 7.182 9.395-9.752L24.52 8.46l9.945.097.095 10.325"></path><path class="arrow-wait" d="M30.848 22.97l-11.88-12.33-6.917 7.182L2.534 7.94 0 10.568l12.003 12.46 6.92-7.182 9.395 9.752-3.798 3.942 9.945-.097.095-10.325"></path><path d="M13 15.66l5.118-.04v-3.38l.705-.66h6.397l.676.66v3.38l-.717.7h-3.447l-2.178 2.13v4.502h4.96v-2.977l.688-.67h3.504l2.26-2.21V10.7l-2.21-2.163H15.25L13 10.7m6.486 14.15h5.118V28h-5.118z" class="question-mark"></path></svg>