<svg viewBox="0 0 200 200" width="1.25em" height="1.25em" xmlns="http://www.w3.org/2000/svg" class="c9chC-row-icon" role="img"><path d="M173.636 40H26.364C17.326 40 10 47.276 10 56.25v56.875c0 8.975 7.326 16.25 16.364 16.25h147.272c9.037 0 16.364-7.275 16.364-16.25V56.25c0-8.974-7.326-16.25-16.364-16.25zm-32.727 77.188c-10.816 0-10.833-16.25 0-16.25c10.816 0 10.833 16.25 0 16.25zm0-24.376c-10.816 0-10.833-16.25 0-16.25c10.816 0 10.833 16.25 0 16.25zm0-24.374c-10.816 0-10.833-16.25 0-16.25c10.816 0 10.833 16.25 0 16.25zM18.182 137.5h147.273L41.627 169.657c-8.849 1.826-17.512-3.816-19.352-12.603L18.182 137.5z"></path></svg>